<svg width="282" height="325" viewBox="0 0 282 325" fill="none" xmlns="http://www.w3.org/2000/svg">
<path d="M45.96 316C45.72 316 45.516 315.928 45.348 315.784C45.204 315.616 45.132 315.412 45.132 315.172V291.664C45.132 291.4 45.204 291.196 45.348 291.052C45.516 290.884 45.72 290.8 45.96 290.8H47.76C48.048 290.8 48.264 290.872 48.408 291.016C48.552 291.16 48.636 291.28 48.66 291.376L56.292 305.92L63.96 291.376C64.008 291.28 64.092 291.16 64.212 291.016C64.356 290.872 64.572 290.8 64.86 290.8H66.624C66.888 290.8 67.092 290.884 67.236 291.052C67.404 291.196 67.488 291.4 67.488 291.664V315.172C67.488 315.412 67.404 315.616 67.236 315.784C67.092 315.928 66.888 316 66.624 316H64.86C64.62 316 64.416 315.928 64.248 315.784C64.104 315.616 64.032 315.412 64.032 315.172V297.46L58.02 309.196C57.924 309.436 57.78 309.628 57.588 309.772C57.396 309.892 57.156 309.952 56.868 309.952H55.752C55.44 309.952 55.188 309.892 54.996 309.772C54.828 309.628 54.684 309.436 54.564 309.196L48.552 297.46V315.172C48.552 315.412 48.468 315.616 48.3 315.784C48.156 315.928 47.964 316 47.724 316H45.96ZM76.522 322.84C76.33 322.84 76.162 322.768 76.018 322.624C75.874 322.48 75.802 322.312 75.802 322.12C75.802 322.024 75.814 321.928 75.838 321.832C75.862 321.736 75.91 321.616 75.982 321.472L78.754 314.884L71.878 298.648C71.758 298.36 71.698 298.156 71.698 298.036C71.698 297.82 71.77 297.64 71.914 297.496C72.058 297.352 72.238 297.28 72.454 297.28H74.218C74.458 297.28 74.65 297.34 74.794 297.46C74.938 297.58 75.034 297.724 75.082 297.892L80.554 310.996L86.17 297.892C86.242 297.724 86.338 297.58 86.458 297.46C86.602 297.34 86.806 297.28 87.07 297.28H88.762C88.978 297.28 89.158 297.352 89.302 297.496C89.446 297.64 89.518 297.808 89.518 298C89.518 298.12 89.458 298.336 89.338 298.648L79.114 322.228C79.042 322.396 78.934 322.54 78.79 322.66C78.67 322.78 78.478 322.84 78.214 322.84H76.522ZM102.245 316C101.981 316 101.777 315.928 101.633 315.784C101.489 315.616 101.417 315.412 101.417 315.172V291.628C101.417 291.388 101.489 291.196 101.633 291.052C101.777 290.884 101.981 290.8 102.245 290.8H104.153C104.393 290.8 104.585 290.884 104.729 291.052C104.873 291.196 104.945 291.388 104.945 291.628V312.868H116.933C117.197 312.868 117.401 312.952 117.545 313.12C117.689 313.264 117.761 313.468 117.761 313.732V315.172C117.761 315.412 117.689 315.616 117.545 315.784C117.401 315.928 117.197 316 116.933 316H102.245ZM122.062 316C121.822 316 121.618 315.928 121.45 315.784C121.306 315.616 121.234 315.412 121.234 315.172V298.108C121.234 297.868 121.306 297.676 121.45 297.532C121.618 297.364 121.822 297.28 122.062 297.28H123.79C124.03 297.28 124.222 297.364 124.366 297.532C124.51 297.676 124.582 297.868 124.582 298.108V315.172C124.582 315.412 124.51 315.616 124.366 315.784C124.222 315.928 124.03 316 123.79 316H122.062ZM121.774 293.788C121.534 293.788 121.33 293.716 121.162 293.572C121.018 293.404 120.946 293.2 120.946 292.96V291.016C120.946 290.776 121.018 290.584 121.162 290.44C121.33 290.272 121.534 290.188 121.774 290.188H124.042C124.282 290.188 124.474 290.272 124.618 290.44C124.786 290.584 124.87 290.776 124.87 291.016V292.96C124.87 293.2 124.786 293.404 124.618 293.572C124.474 293.716 124.282 293.788 124.042 293.788H121.774ZM131.133 316C130.893 316 130.689 315.928 130.521 315.784C130.377 315.616 130.305 315.412 130.305 315.172V298.108C130.305 297.868 130.377 297.676 130.521 297.532C130.689 297.364 130.893 297.28 131.133 297.28H132.825C133.065 297.28 133.257 297.364 133.401 297.532C133.569 297.676 133.653 297.868 133.653 298.108V299.692C134.277 298.876 135.057 298.216 135.993 297.712C136.953 297.184 138.177 296.92 139.665 296.92C141.225 296.92 142.545 297.268 143.625 297.964C144.729 298.636 145.557 299.584 146.109 300.808C146.661 302.008 146.937 303.412 146.937 305.02V315.172C146.937 315.412 146.865 315.616 146.721 315.784C146.577 315.928 146.385 316 146.145 316H144.345C144.105 316 143.901 315.928 143.733 315.784C143.589 315.616 143.517 315.412 143.517 315.172V305.2C143.517 303.52 143.109 302.212 142.293 301.276C141.477 300.316 140.277 299.836 138.693 299.836C137.205 299.836 136.005 300.316 135.093 301.276C134.205 302.212 133.761 303.52 133.761 305.2V315.172C133.761 315.412 133.677 315.616 133.509 315.784C133.365 315.928 133.173 316 132.933 316H131.133ZM153.001 316C152.761 316 152.557 315.928 152.389 315.784C152.245 315.616 152.173 315.412 152.173 315.172V291.268C152.173 291.028 152.245 290.836 152.389 290.692C152.557 290.524 152.761 290.44 153.001 290.44H154.693C154.933 290.44 155.125 290.524 155.269 290.692C155.437 290.836 155.521 291.028 155.521 291.268V303.796L162.613 297.892C162.901 297.652 163.117 297.496 163.261 297.424C163.429 297.328 163.693 297.28 164.053 297.28H165.961C166.177 297.28 166.357 297.352 166.501 297.496C166.645 297.64 166.717 297.82 166.717 298.036C166.717 298.132 166.681 298.24 166.609 298.36C166.561 298.48 166.453 298.6 166.285 298.72L157.969 305.632L167.185 314.596C167.473 314.836 167.617 315.052 167.617 315.244C167.617 315.46 167.545 315.64 167.401 315.784C167.257 315.928 167.077 316 166.861 316H164.989C164.629 316 164.365 315.964 164.197 315.892C164.029 315.796 163.813 315.628 163.549 315.388L155.521 307.72V315.172C155.521 315.412 155.437 315.616 155.269 315.784C155.125 315.928 154.933 316 154.693 316H153.001ZM177.272 316.36C174.8 316.36 172.832 315.604 171.368 314.092C169.904 312.556 169.1 310.468 168.956 307.828C168.932 307.516 168.92 307.12 168.92 306.64C168.92 306.136 168.932 305.728 168.956 305.416C169.052 303.712 169.448 302.224 170.144 300.952C170.84 299.656 171.788 298.66 172.988 297.964C174.212 297.268 175.64 296.92 177.272 296.92C179.096 296.92 180.62 297.304 181.844 298.072C183.092 298.84 184.04 299.932 184.688 301.348C185.336 302.764 185.66 304.42 185.66 306.316V306.928C185.66 307.192 185.576 307.396 185.408 307.54C185.264 307.684 185.072 307.756 184.832 307.756H172.376C172.376 307.78 172.376 307.828 172.376 307.9C172.376 307.972 172.376 308.032 172.376 308.08C172.424 309.064 172.64 309.988 173.024 310.852C173.408 311.692 173.96 312.376 174.68 312.904C175.4 313.432 176.264 313.696 177.272 313.696C178.136 313.696 178.856 313.564 179.432 313.3C180.008 313.036 180.476 312.748 180.836 312.436C181.196 312.1 181.436 311.848 181.556 311.68C181.772 311.368 181.94 311.188 182.06 311.14C182.18 311.068 182.372 311.032 182.636 311.032H184.364C184.604 311.032 184.796 311.104 184.94 311.248C185.108 311.368 185.18 311.548 185.156 311.788C185.132 312.148 184.94 312.592 184.58 313.12C184.22 313.624 183.704 314.128 183.032 314.632C182.36 315.136 181.544 315.556 180.584 315.892C179.624 316.204 178.52 316.36 177.272 316.36ZM172.376 305.272H182.24V305.164C182.24 304.084 182.036 303.124 181.628 302.284C181.244 301.444 180.68 300.784 179.936 300.304C179.192 299.8 178.304 299.548 177.272 299.548C176.24 299.548 175.352 299.8 174.608 300.304C173.888 300.784 173.336 301.444 172.952 302.284C172.568 303.124 172.376 304.084 172.376 305.164V305.272ZM196.805 316.36C195.485 316.36 194.345 316.132 193.385 315.676C192.425 315.196 191.633 314.56 191.009 313.768C190.409 312.952 189.953 312.028 189.641 310.996C189.353 309.964 189.185 308.872 189.137 307.72C189.113 307.336 189.101 306.976 189.101 306.64C189.101 306.304 189.113 305.944 189.137 305.56C189.185 304.432 189.353 303.352 189.641 302.32C189.953 301.288 190.409 300.364 191.009 299.548C191.633 298.732 192.425 298.096 193.385 297.64C194.345 297.16 195.485 296.92 196.805 296.92C198.221 296.92 199.397 297.172 200.333 297.676C201.269 298.18 202.037 298.804 202.637 299.548V291.268C202.637 291.028 202.709 290.836 202.853 290.692C203.021 290.524 203.225 290.44 203.465 290.44H205.193C205.433 290.44 205.625 290.524 205.769 290.692C205.937 290.836 206.021 291.028 206.021 291.268V315.172C206.021 315.412 205.937 315.616 205.769 315.784C205.625 315.928 205.433 316 205.193 316H203.573C203.309 316 203.105 315.928 202.961 315.784C202.817 315.616 202.745 315.412 202.745 315.172V313.66C202.145 314.428 201.365 315.076 200.405 315.604C199.445 316.108 198.245 316.36 196.805 316.36ZM197.561 313.444C198.761 313.444 199.721 313.168 200.441 312.616C201.161 312.064 201.701 311.368 202.061 310.528C202.421 309.664 202.613 308.788 202.637 307.9C202.661 307.516 202.673 307.06 202.673 306.532C202.673 305.98 202.661 305.512 202.637 305.128C202.613 304.288 202.409 303.46 202.025 302.644C201.665 301.828 201.113 301.156 200.369 300.628C199.649 300.1 198.713 299.836 197.561 299.836C196.337 299.836 195.365 300.112 194.645 300.664C193.925 301.192 193.409 301.9 193.097 302.788C192.785 303.652 192.605 304.588 192.557 305.596C192.533 306.292 192.533 306.988 192.557 307.684C192.605 308.692 192.785 309.64 193.097 310.528C193.409 311.392 193.925 312.1 194.645 312.652C195.365 313.18 196.337 313.444 197.561 313.444ZM212.671 316C212.407 316 212.203 315.928 212.059 315.784C211.915 315.616 211.843 315.412 211.843 315.172V291.628C211.843 291.388 211.915 291.196 212.059 291.052C212.203 290.884 212.407 290.8 212.671 290.8H214.579C214.819 290.8 215.011 290.884 215.155 291.052C215.323 291.196 215.407 291.388 215.407 291.628V315.172C215.407 315.412 215.323 315.616 215.155 315.784C215.011 315.928 214.819 316 214.579 316H212.671ZM222.047 316C221.807 316 221.603 315.928 221.435 315.784C221.291 315.616 221.219 315.412 221.219 315.172V298.108C221.219 297.868 221.291 297.676 221.435 297.532C221.603 297.364 221.807 297.28 222.047 297.28H223.739C223.979 297.28 224.171 297.364 224.315 297.532C224.483 297.676 224.567 297.868 224.567 298.108V299.692C225.191 298.876 225.971 298.216 226.907 297.712C227.867 297.184 229.091 296.92 230.579 296.92C232.139 296.92 233.459 297.268 234.539 297.964C235.643 298.636 236.471 299.584 237.023 300.808C237.575 302.008 237.851 303.412 237.851 305.02V315.172C237.851 315.412 237.779 315.616 237.635 315.784C237.491 315.928 237.299 316 237.059 316H235.259C235.019 316 234.815 315.928 234.647 315.784C234.503 315.616 234.431 315.412 234.431 315.172V305.2C234.431 303.52 234.023 302.212 233.207 301.276C232.391 300.316 231.191 299.836 229.607 299.836C228.119 299.836 226.919 300.316 226.007 301.276C225.119 302.212 224.675 303.52 224.675 305.2V315.172C224.675 315.412 224.591 315.616 224.423 315.784C224.279 315.928 224.087 316 223.847 316H222.047Z" fill="#1F3E24"/>
<rect width="282" height="282" fill="white"/>
<path d="M16 16H23.5758V23.5758H16V16ZM23.5758 16H31.1515V23.5758H23.5758V16ZM31.1515 16H38.7273V23.5758H31.1515V16ZM38.7273 16H46.303V23.5758H38.7273V16ZM46.303 16H53.8788V23.5758H46.303V16ZM53.8788 16H61.4545V23.5758H53.8788V16ZM61.4545 16H69.0303V23.5758H61.4545V16ZM76.6061 16H84.1818V23.5758H76.6061V16ZM122.061 16H129.636V23.5758H122.061V16ZM129.636 16H137.212V23.5758H129.636V16ZM137.212 16H144.788V23.5758H137.212V16ZM152.364 16H159.939V23.5758H152.364V16ZM182.667 16H190.242V23.5758H182.667V16ZM212.97 16H220.545V23.5758H212.97V16ZM220.545 16H228.121V23.5758H220.545V16ZM228.121 16H235.697V23.5758H228.121V16ZM235.697 16H243.273V23.5758H235.697V16ZM243.273 16H250.848V23.5758H243.273V16ZM250.848 16H258.424V23.5758H250.848V16ZM258.424 16H266V23.5758H258.424V16ZM16 23.5758H23.5758V31.1515H16V23.5758ZM61.4545 23.5758H69.0303V31.1515H61.4545V23.5758ZM76.6061 23.5758H84.1818V31.1515H76.6061V23.5758ZM91.7576 23.5758H99.3333V31.1515H91.7576V23.5758ZM99.3333 23.5758H106.909V31.1515H99.3333V23.5758ZM129.636 23.5758H137.212V31.1515H129.636V23.5758ZM152.364 23.5758H159.939V31.1515H152.364V23.5758ZM175.091 23.5758H182.667V31.1515H175.091V23.5758ZM197.818 23.5758H205.394V31.1515H197.818V23.5758ZM212.97 23.5758H220.545V31.1515H212.97V23.5758ZM258.424 23.5758H266V31.1515H258.424V23.5758ZM16 31.1515H23.5758V38.7273H16V31.1515ZM31.1515 31.1515H38.7273V38.7273H31.1515V31.1515ZM38.7273 31.1515H46.303V38.7273H38.7273V31.1515ZM46.303 31.1515H53.8788V38.7273H46.303V31.1515ZM61.4545 31.1515H69.0303V38.7273H61.4545V31.1515ZM114.485 31.1515H122.061V38.7273H114.485V31.1515ZM122.061 31.1515H129.636V38.7273H122.061V31.1515ZM137.212 31.1515H144.788V38.7273H137.212V31.1515ZM159.939 31.1515H167.515V38.7273H159.939V31.1515ZM167.515 31.1515H175.091V38.7273H167.515V31.1515ZM175.091 31.1515H182.667V38.7273H175.091V31.1515ZM212.97 31.1515H220.545V38.7273H212.97V31.1515ZM228.121 31.1515H235.697V38.7273H228.121V31.1515ZM235.697 31.1515H243.273V38.7273H235.697V31.1515ZM243.273 31.1515H250.848V38.7273H243.273V31.1515ZM258.424 31.1515H266V38.7273H258.424V31.1515ZM16 38.7273H23.5758V46.303H16V38.7273ZM31.1515 38.7273H38.7273V46.303H31.1515V38.7273ZM38.7273 38.7273H46.303V46.303H38.7273V38.7273ZM46.303 38.7273H53.8788V46.303H46.303V38.7273ZM61.4545 38.7273H69.0303V46.303H61.4545V38.7273ZM84.1818 38.7273H91.7576V46.303H84.1818V38.7273ZM91.7576 38.7273H99.3333V46.303H91.7576V38.7273ZM122.061 38.7273H129.636V46.303H122.061V38.7273ZM129.636 38.7273H137.212V46.303H129.636V38.7273ZM144.788 38.7273H152.364V46.303H144.788V38.7273ZM152.364 38.7273H159.939V46.303H152.364V38.7273ZM159.939 38.7273H167.515V46.303H159.939V38.7273ZM175.091 38.7273H182.667V46.303H175.091V38.7273ZM190.242 38.7273H197.818V46.303H190.242V38.7273ZM212.97 38.7273H220.545V46.303H212.97V38.7273ZM228.121 38.7273H235.697V46.303H228.121V38.7273ZM235.697 38.7273H243.273V46.303H235.697V38.7273ZM243.273 38.7273H250.848V46.303H243.273V38.7273ZM258.424 38.7273H266V46.303H258.424V38.7273ZM16 46.303H23.5758V53.8788H16V46.303ZM31.1515 46.303H38.7273V53.8788H31.1515V46.303ZM38.7273 46.303H46.303V53.8788H38.7273V46.303ZM46.303 46.303H53.8788V53.8788H46.303V46.303ZM61.4545 46.303H69.0303V53.8788H61.4545V46.303ZM91.7576 46.303H99.3333V53.8788H91.7576V46.303ZM114.485 46.303H122.061V53.8788H114.485V46.303ZM122.061 46.303H129.636V53.8788H122.061V46.303ZM129.636 46.303H137.212V53.8788H129.636V46.303ZM152.364 46.303H159.939V53.8788H152.364V46.303ZM159.939 46.303H167.515V53.8788H159.939V46.303ZM167.515 46.303H175.091V53.8788H167.515V46.303ZM190.242 46.303H197.818V53.8788H190.242V46.303ZM212.97 46.303H220.545V53.8788H212.97V46.303ZM228.121 46.303H235.697V53.8788H228.121V46.303ZM235.697 46.303H243.273V53.8788H235.697V46.303ZM243.273 46.303H250.848V53.8788H243.273V46.303ZM258.424 46.303H266V53.8788H258.424V46.303ZM16 53.8788H23.5758V61.4545H16V53.8788ZM61.4545 53.8788H69.0303V61.4545H61.4545V53.8788ZM84.1818 53.8788H91.7576V61.4545H84.1818V53.8788ZM106.909 53.8788H114.485V61.4545H106.909V53.8788ZM114.485 53.8788H122.061V61.4545H114.485V53.8788ZM122.061 53.8788H129.636V61.4545H122.061V53.8788ZM129.636 53.8788H137.212V61.4545H129.636V53.8788ZM144.788 53.8788H152.364V61.4545H144.788V53.8788ZM152.364 53.8788H159.939V61.4545H152.364V53.8788ZM197.818 53.8788H205.394V61.4545H197.818V53.8788ZM212.97 53.8788H220.545V61.4545H212.97V53.8788ZM258.424 53.8788H266V61.4545H258.424V53.8788ZM16 61.4545H23.5758V69.0303H16V61.4545ZM23.5758 61.4545H31.1515V69.0303H23.5758V61.4545ZM31.1515 61.4545H38.7273V69.0303H31.1515V61.4545ZM38.7273 61.4545H46.303V69.0303H38.7273V61.4545ZM46.303 61.4545H53.8788V69.0303H46.303V61.4545ZM53.8788 61.4545H61.4545V69.0303H53.8788V61.4545ZM61.4545 61.4545H69.0303V69.0303H61.4545V61.4545ZM76.6061 61.4545H84.1818V69.0303H76.6061V61.4545ZM91.7576 61.4545H99.3333V69.0303H91.7576V61.4545ZM106.909 61.4545H114.485V69.0303H106.909V61.4545ZM122.061 61.4545H129.636V69.0303H122.061V61.4545ZM137.212 61.4545H144.788V69.0303H137.212V61.4545ZM152.364 61.4545H159.939V69.0303H152.364V61.4545ZM167.515 61.4545H175.091V69.0303H167.515V61.4545ZM182.667 61.4545H190.242V69.0303H182.667V61.4545ZM197.818 61.4545H205.394V69.0303H197.818V61.4545ZM212.97 61.4545H220.545V69.0303H212.97V61.4545ZM220.545 61.4545H228.121V69.0303H220.545V61.4545ZM228.121 61.4545H235.697V69.0303H228.121V61.4545ZM235.697 61.4545H243.273V69.0303H235.697V61.4545ZM243.273 61.4545H250.848V69.0303H243.273V61.4545ZM250.848 61.4545H258.424V69.0303H250.848V61.4545ZM258.424 61.4545H266V69.0303H258.424V61.4545ZM91.7576 69.0303H99.3333V76.6061H91.7576V69.0303ZM99.3333 69.0303H106.909V76.6061H99.3333V69.0303ZM106.909 69.0303H114.485V76.6061H106.909V69.0303ZM129.636 69.0303H137.212V76.6061H129.636V69.0303ZM159.939 69.0303H167.515V76.6061H159.939V69.0303ZM167.515 69.0303H175.091V76.6061H167.515V69.0303ZM182.667 69.0303H190.242V76.6061H182.667V69.0303ZM190.242 69.0303H197.818V76.6061H190.242V69.0303ZM197.818 69.0303H205.394V76.6061H197.818V69.0303ZM23.5758 76.6061H31.1515V84.1818H23.5758V76.6061ZM61.4545 76.6061H69.0303V84.1818H61.4545V76.6061ZM69.0303 76.6061H76.6061V84.1818H69.0303V76.6061ZM76.6061 76.6061H84.1818V84.1818H76.6061V76.6061ZM91.7576 76.6061H99.3333V84.1818H91.7576V76.6061ZM99.3333 76.6061H106.909V84.1818H99.3333V76.6061ZM114.485 76.6061H122.061V84.1818H114.485V76.6061ZM137.212 76.6061H144.788V84.1818H137.212V76.6061ZM144.788 76.6061H152.364V84.1818H144.788V76.6061ZM159.939 76.6061H167.515V84.1818H159.939V76.6061ZM182.667 76.6061H190.242V84.1818H182.667V76.6061ZM190.242 76.6061H197.818V84.1818H190.242V76.6061ZM197.818 76.6061H205.394V84.1818H197.818V76.6061ZM205.394 76.6061H212.97V84.1818H205.394V76.6061ZM250.848 76.6061H258.424V84.1818H250.848V76.6061ZM258.424 76.6061H266V84.1818H258.424V76.6061ZM16 84.1818H23.5758V91.7576H16V84.1818ZM38.7273 84.1818H46.303V91.7576H38.7273V84.1818ZM76.6061 84.1818H84.1818V91.7576H76.6061V84.1818ZM91.7576 84.1818H99.3333V91.7576H91.7576V84.1818ZM99.3333 84.1818H106.909V91.7576H99.3333V84.1818ZM122.061 84.1818H129.636V91.7576H122.061V84.1818ZM129.636 84.1818H137.212V91.7576H129.636V84.1818ZM144.788 84.1818H152.364V91.7576H144.788V84.1818ZM152.364 84.1818H159.939V91.7576H152.364V84.1818ZM159.939 84.1818H167.515V91.7576H159.939V84.1818ZM167.515 84.1818H175.091V91.7576H167.515V84.1818ZM182.667 84.1818H190.242V91.7576H182.667V84.1818ZM190.242 84.1818H197.818V91.7576H190.242V84.1818ZM228.121 84.1818H235.697V91.7576H228.121V84.1818ZM235.697 84.1818H243.273V91.7576H235.697V84.1818ZM243.273 84.1818H250.848V91.7576H243.273V84.1818ZM31.1515 91.7576H38.7273V99.3333H31.1515V91.7576ZM46.303 91.7576H53.8788V99.3333H46.303V91.7576ZM61.4545 91.7576H69.0303V99.3333H61.4545V91.7576ZM84.1818 91.7576H91.7576V99.3333H84.1818V91.7576ZM99.3333 91.7576H106.909V99.3333H99.3333V91.7576ZM122.061 91.7576H129.636V99.3333H122.061V91.7576ZM144.788 91.7576H152.364V99.3333H144.788V91.7576ZM175.091 91.7576H182.667V99.3333H175.091V91.7576ZM197.818 91.7576H205.394V99.3333H197.818V91.7576ZM228.121 91.7576H235.697V99.3333H228.121V91.7576ZM243.273 91.7576H250.848V99.3333H243.273V91.7576ZM250.848 91.7576H258.424V99.3333H250.848V91.7576ZM16 99.3333H23.5758V106.909H16V99.3333ZM38.7273 99.3333H46.303V106.909H38.7273V99.3333ZM46.303 99.3333H53.8788V106.909H46.303V99.3333ZM53.8788 99.3333H61.4545V106.909H53.8788V99.3333ZM76.6061 99.3333H84.1818V106.909H76.6061V99.3333ZM84.1818 99.3333H91.7576V106.909H84.1818V99.3333ZM91.7576 99.3333H99.3333V106.909H91.7576V99.3333ZM114.485 99.3333H122.061V106.909H114.485V99.3333ZM129.636 99.3333H137.212V106.909H129.636V99.3333ZM137.212 99.3333H144.788V106.909H137.212V99.3333ZM159.939 99.3333H167.515V106.909H159.939V99.3333ZM167.515 99.3333H175.091V106.909H167.515V99.3333ZM182.667 99.3333H190.242V106.909H182.667V99.3333ZM190.242 99.3333H197.818V106.909H190.242V99.3333ZM205.394 99.3333H212.97V106.909H205.394V99.3333ZM220.545 99.3333H228.121V106.909H220.545V99.3333ZM228.121 99.3333H235.697V106.909H228.121V99.3333ZM235.697 99.3333H243.273V106.909H235.697V99.3333ZM243.273 99.3333H250.848V106.909H243.273V99.3333ZM250.848 99.3333H258.424V106.909H250.848V99.3333ZM258.424 99.3333H266V106.909H258.424V99.3333ZM31.1515 106.909H38.7273V114.485H31.1515V106.909ZM46.303 106.909H53.8788V114.485H46.303V106.909ZM61.4545 106.909H69.0303V114.485H61.4545V106.909ZM69.0303 106.909H76.6061V114.485H69.0303V106.909ZM84.1818 106.909H91.7576V114.485H84.1818V106.909ZM129.636 106.909H137.212V114.485H129.636V106.909ZM137.212 106.909H144.788V114.485H137.212V106.909ZM144.788 106.909H152.364V114.485H144.788V106.909ZM152.364 106.909H159.939V114.485H152.364V106.909ZM167.515 106.909H175.091V114.485H167.515V106.909ZM212.97 106.909H220.545V114.485H212.97V106.909ZM220.545 106.909H228.121V114.485H220.545V106.909ZM23.5758 114.485H31.1515V122.061H23.5758V114.485ZM53.8788 114.485H61.4545V122.061H53.8788V114.485ZM84.1818 114.485H91.7576V122.061H84.1818V114.485ZM91.7576 114.485H99.3333V122.061H91.7576V114.485ZM106.909 114.485H114.485V122.061H106.909V114.485ZM137.212 114.485H144.788V122.061H137.212V114.485ZM144.788 114.485H152.364V122.061H144.788V114.485ZM152.364 114.485H159.939V122.061H152.364V114.485ZM159.939 114.485H167.515V122.061H159.939V114.485ZM167.515 114.485H175.091V122.061H167.515V114.485ZM175.091 114.485H182.667V122.061H175.091V114.485ZM190.242 114.485H197.818V122.061H190.242V114.485ZM212.97 114.485H220.545V122.061H212.97V114.485ZM220.545 114.485H228.121V122.061H220.545V114.485ZM250.848 114.485H258.424V122.061H250.848V114.485ZM258.424 114.485H266V122.061H258.424V114.485ZM31.1515 122.061H38.7273V129.636H31.1515V122.061ZM53.8788 122.061H61.4545V129.636H53.8788V122.061ZM61.4545 122.061H69.0303V129.636H61.4545V122.061ZM69.0303 122.061H76.6061V129.636H69.0303V122.061ZM76.6061 122.061H84.1818V129.636H76.6061V122.061ZM99.3333 122.061H106.909V129.636H99.3333V122.061ZM106.909 122.061H114.485V129.636H106.909V122.061ZM122.061 122.061H129.636V129.636H122.061V122.061ZM144.788 122.061H152.364V129.636H144.788V122.061ZM167.515 122.061H175.091V129.636H167.515V122.061ZM182.667 122.061H190.242V129.636H182.667V122.061ZM205.394 122.061H212.97V129.636H205.394V122.061ZM212.97 122.061H220.545V129.636H212.97V122.061ZM220.545 122.061H228.121V129.636H220.545V122.061ZM235.697 122.061H243.273V129.636H235.697V122.061ZM243.273 122.061H250.848V129.636H243.273V122.061ZM250.848 122.061H258.424V129.636H250.848V122.061ZM16 129.636H23.5758V137.212H16V129.636ZM23.5758 129.636H31.1515V137.212H23.5758V129.636ZM31.1515 129.636H38.7273V137.212H31.1515V129.636ZM53.8788 129.636H61.4545V137.212H53.8788V129.636ZM84.1818 129.636H91.7576V137.212H84.1818V129.636ZM91.7576 129.636H99.3333V137.212H91.7576V129.636ZM129.636 129.636H137.212V137.212H129.636V129.636ZM137.212 129.636H144.788V137.212H137.212V129.636ZM144.788 129.636H152.364V137.212H144.788V129.636ZM152.364 129.636H159.939V137.212H152.364V129.636ZM159.939 129.636H167.515V137.212H159.939V129.636ZM182.667 129.636H190.242V137.212H182.667V129.636ZM205.394 129.636H212.97V137.212H205.394V129.636ZM235.697 129.636H243.273V137.212H235.697V129.636ZM243.273 129.636H250.848V137.212H243.273V129.636ZM258.424 129.636H266V137.212H258.424V129.636ZM16 137.212H23.5758V144.788H16V137.212ZM46.303 137.212H53.8788V144.788H46.303V137.212ZM53.8788 137.212H61.4545V144.788H53.8788V137.212ZM61.4545 137.212H69.0303V144.788H61.4545V137.212ZM69.0303 137.212H76.6061V144.788H69.0303V137.212ZM76.6061 137.212H84.1818V144.788H76.6061V137.212ZM84.1818 137.212H91.7576V144.788H84.1818V137.212ZM91.7576 137.212H99.3333V144.788H91.7576V137.212ZM129.636 137.212H137.212V144.788H129.636V137.212ZM137.212 137.212H144.788V144.788H137.212V137.212ZM159.939 137.212H167.515V144.788H159.939V137.212ZM182.667 137.212H190.242V144.788H182.667V137.212ZM197.818 137.212H205.394V144.788H197.818V137.212ZM205.394 137.212H212.97V144.788H205.394V137.212ZM220.545 137.212H228.121V144.788H220.545V137.212ZM228.121 137.212H235.697V144.788H228.121V137.212ZM258.424 137.212H266V144.788H258.424V137.212ZM23.5758 144.788H31.1515V152.364H23.5758V144.788ZM31.1515 144.788H38.7273V152.364H31.1515V144.788ZM38.7273 144.788H46.303V152.364H38.7273V144.788ZM69.0303 144.788H76.6061V152.364H69.0303V144.788ZM84.1818 144.788H91.7576V152.364H84.1818V144.788ZM106.909 144.788H114.485V152.364H106.909V144.788ZM122.061 144.788H129.636V152.364H122.061V144.788ZM129.636 144.788H137.212V152.364H129.636V144.788ZM137.212 144.788H144.788V152.364H137.212V144.788ZM152.364 144.788H159.939V152.364H152.364V144.788ZM159.939 144.788H167.515V152.364H159.939V144.788ZM167.515 144.788H175.091V152.364H167.515V144.788ZM175.091 144.788H182.667V152.364H175.091V144.788ZM190.242 144.788H197.818V152.364H190.242V144.788ZM197.818 144.788H205.394V152.364H197.818V144.788ZM205.394 144.788H212.97V152.364H205.394V144.788ZM212.97 144.788H220.545V152.364H212.97V144.788ZM235.697 144.788H243.273V152.364H235.697V144.788ZM243.273 144.788H250.848V152.364H243.273V144.788ZM258.424 144.788H266V152.364H258.424V144.788ZM16 152.364H23.5758V159.939H16V152.364ZM53.8788 152.364H61.4545V159.939H53.8788V152.364ZM61.4545 152.364H69.0303V159.939H61.4545V152.364ZM69.0303 152.364H76.6061V159.939H69.0303V152.364ZM76.6061 152.364H84.1818V159.939H76.6061V152.364ZM84.1818 152.364H91.7576V159.939H84.1818V152.364ZM91.7576 152.364H99.3333V159.939H91.7576V152.364ZM99.3333 152.364H106.909V159.939H99.3333V152.364ZM114.485 152.364H122.061V159.939H114.485V152.364ZM122.061 152.364H129.636V159.939H122.061V152.364ZM129.636 152.364H137.212V159.939H129.636V152.364ZM137.212 152.364H144.788V159.939H137.212V152.364ZM152.364 152.364H159.939V159.939H152.364V152.364ZM159.939 152.364H167.515V159.939H159.939V152.364ZM175.091 152.364H182.667V159.939H175.091V152.364ZM190.242 152.364H197.818V159.939H190.242V152.364ZM220.545 152.364H228.121V159.939H220.545V152.364ZM235.697 152.364H243.273V159.939H235.697V152.364ZM243.273 152.364H250.848V159.939H243.273V152.364ZM250.848 152.364H258.424V159.939H250.848V152.364ZM258.424 152.364H266V159.939H258.424V152.364ZM31.1515 159.939H38.7273V167.515H31.1515V159.939ZM38.7273 159.939H46.303V167.515H38.7273V159.939ZM46.303 159.939H53.8788V167.515H46.303V159.939ZM91.7576 159.939H99.3333V167.515H91.7576V159.939ZM106.909 159.939H114.485V167.515H106.909V159.939ZM114.485 159.939H122.061V167.515H114.485V159.939ZM144.788 159.939H152.364V167.515H144.788V159.939ZM152.364 159.939H159.939V167.515H152.364V159.939ZM182.667 159.939H190.242V167.515H182.667V159.939ZM190.242 159.939H197.818V167.515H190.242V159.939ZM228.121 159.939H235.697V167.515H228.121V159.939ZM235.697 159.939H243.273V167.515H235.697V159.939ZM243.273 159.939H250.848V167.515H243.273V159.939ZM250.848 159.939H258.424V167.515H250.848V159.939ZM23.5758 167.515H31.1515V175.091H23.5758V167.515ZM31.1515 167.515H38.7273V175.091H31.1515V167.515ZM38.7273 167.515H46.303V175.091H38.7273V167.515ZM46.303 167.515H53.8788V175.091H46.303V167.515ZM53.8788 167.515H61.4545V175.091H53.8788V167.515ZM61.4545 167.515H69.0303V175.091H61.4545V167.515ZM76.6061 167.515H84.1818V175.091H76.6061V167.515ZM99.3333 167.515H106.909V175.091H99.3333V167.515ZM106.909 167.515H114.485V175.091H106.909V167.515ZM122.061 167.515H129.636V175.091H122.061V167.515ZM129.636 167.515H137.212V175.091H129.636V167.515ZM137.212 167.515H144.788V175.091H137.212V167.515ZM144.788 167.515H152.364V175.091H144.788V167.515ZM152.364 167.515H159.939V175.091H152.364V167.515ZM159.939 167.515H167.515V175.091H159.939V167.515ZM182.667 167.515H190.242V175.091H182.667V167.515ZM205.394 167.515H212.97V175.091H205.394V167.515ZM220.545 167.515H228.121V175.091H220.545V167.515ZM228.121 167.515H235.697V175.091H228.121V167.515ZM235.697 167.515H243.273V175.091H235.697V167.515ZM250.848 167.515H258.424V175.091H250.848V167.515ZM258.424 167.515H266V175.091H258.424V167.515ZM16 175.091H23.5758V182.667H16V175.091ZM23.5758 175.091H31.1515V182.667H23.5758V175.091ZM31.1515 175.091H38.7273V182.667H31.1515V175.091ZM38.7273 175.091H46.303V182.667H38.7273V175.091ZM46.303 175.091H53.8788V182.667H46.303V175.091ZM53.8788 175.091H61.4545V182.667H53.8788V175.091ZM69.0303 175.091H76.6061V182.667H69.0303V175.091ZM99.3333 175.091H106.909V182.667H99.3333V175.091ZM106.909 175.091H114.485V182.667H106.909V175.091ZM122.061 175.091H129.636V182.667H122.061V175.091ZM159.939 175.091H167.515V182.667H159.939V175.091ZM175.091 175.091H182.667V182.667H175.091V175.091ZM182.667 175.091H190.242V182.667H182.667V175.091ZM190.242 175.091H197.818V182.667H190.242V175.091ZM220.545 175.091H228.121V182.667H220.545V175.091ZM228.121 175.091H235.697V182.667H228.121V175.091ZM235.697 175.091H243.273V182.667H235.697V175.091ZM16 182.667H23.5758V190.242H16V182.667ZM31.1515 182.667H38.7273V190.242H31.1515V182.667ZM38.7273 182.667H46.303V190.242H38.7273V182.667ZM46.303 182.667H53.8788V190.242H46.303V182.667ZM53.8788 182.667H61.4545V190.242H53.8788V182.667ZM61.4545 182.667H69.0303V190.242H61.4545V182.667ZM69.0303 182.667H76.6061V190.242H69.0303V182.667ZM76.6061 182.667H84.1818V190.242H76.6061V182.667ZM106.909 182.667H114.485V190.242H106.909V182.667ZM122.061 182.667H129.636V190.242H122.061V182.667ZM152.364 182.667H159.939V190.242H152.364V182.667ZM205.394 182.667H212.97V190.242H205.394V182.667ZM228.121 182.667H235.697V190.242H228.121V182.667ZM250.848 182.667H258.424V190.242H250.848V182.667ZM16 190.242H23.5758V197.818H16V190.242ZM69.0303 190.242H76.6061V197.818H69.0303V190.242ZM76.6061 190.242H84.1818V197.818H76.6061V190.242ZM84.1818 190.242H91.7576V197.818H84.1818V190.242ZM99.3333 190.242H106.909V197.818H99.3333V190.242ZM122.061 190.242H129.636V197.818H122.061V190.242ZM152.364 190.242H159.939V197.818H152.364V190.242ZM159.939 190.242H167.515V197.818H159.939V190.242ZM182.667 190.242H190.242V197.818H182.667V190.242ZM190.242 190.242H197.818V197.818H190.242V190.242ZM197.818 190.242H205.394V197.818H197.818V190.242ZM205.394 190.242H212.97V197.818H205.394V190.242ZM212.97 190.242H220.545V197.818H212.97V190.242ZM228.121 190.242H235.697V197.818H228.121V190.242ZM243.273 190.242H250.848V197.818H243.273V190.242ZM258.424 190.242H266V197.818H258.424V190.242ZM16 197.818H23.5758V205.394H16V197.818ZM23.5758 197.818H31.1515V205.394H23.5758V197.818ZM31.1515 197.818H38.7273V205.394H31.1515V197.818ZM38.7273 197.818H46.303V205.394H38.7273V197.818ZM46.303 197.818H53.8788V205.394H46.303V197.818ZM61.4545 197.818H69.0303V205.394H61.4545V197.818ZM84.1818 197.818H91.7576V205.394H84.1818V197.818ZM91.7576 197.818H99.3333V205.394H91.7576V197.818ZM99.3333 197.818H106.909V205.394H99.3333V197.818ZM106.909 197.818H114.485V205.394H106.909V197.818ZM122.061 197.818H129.636V205.394H122.061V197.818ZM129.636 197.818H137.212V205.394H129.636V197.818ZM137.212 197.818H144.788V205.394H137.212V197.818ZM144.788 197.818H152.364V205.394H144.788V197.818ZM152.364 197.818H159.939V205.394H152.364V197.818ZM159.939 197.818H167.515V205.394H159.939V197.818ZM167.515 197.818H175.091V205.394H167.515V197.818ZM197.818 197.818H205.394V205.394H197.818V197.818ZM205.394 197.818H212.97V205.394H205.394V197.818ZM212.97 197.818H220.545V205.394H212.97V197.818ZM220.545 197.818H228.121V205.394H220.545V197.818ZM228.121 197.818H235.697V205.394H228.121V197.818ZM235.697 197.818H243.273V205.394H235.697V197.818ZM76.6061 205.394H84.1818V212.97H76.6061V205.394ZM84.1818 205.394H91.7576V212.97H84.1818V205.394ZM129.636 205.394H137.212V212.97H129.636V205.394ZM152.364 205.394H159.939V212.97H152.364V205.394ZM159.939 205.394H167.515V212.97H159.939V205.394ZM167.515 205.394H175.091V212.97H167.515V205.394ZM190.242 205.394H197.818V212.97H190.242V205.394ZM197.818 205.394H205.394V212.97H197.818V205.394ZM228.121 205.394H235.697V212.97H228.121V205.394ZM243.273 205.394H250.848V212.97H243.273V205.394ZM258.424 205.394H266V212.97H258.424V205.394ZM16 212.97H23.5758V220.545H16V212.97ZM23.5758 212.97H31.1515V220.545H23.5758V212.97ZM31.1515 212.97H38.7273V220.545H31.1515V212.97ZM38.7273 212.97H46.303V220.545H38.7273V212.97ZM46.303 212.97H53.8788V220.545H46.303V212.97ZM53.8788 212.97H61.4545V220.545H53.8788V212.97ZM61.4545 212.97H69.0303V220.545H61.4545V212.97ZM76.6061 212.97H84.1818V220.545H76.6061V212.97ZM84.1818 212.97H91.7576V220.545H84.1818V212.97ZM91.7576 212.97H99.3333V220.545H91.7576V212.97ZM99.3333 212.97H106.909V220.545H99.3333V212.97ZM144.788 212.97H152.364V220.545H144.788V212.97ZM175.091 212.97H182.667V220.545H175.091V212.97ZM190.242 212.97H197.818V220.545H190.242V212.97ZM197.818 212.97H205.394V220.545H197.818V212.97ZM212.97 212.97H220.545V220.545H212.97V212.97ZM228.121 212.97H235.697V220.545H228.121V212.97ZM243.273 212.97H250.848V220.545H243.273V212.97ZM250.848 212.97H258.424V220.545H250.848V212.97ZM16 220.545H23.5758V228.121H16V220.545ZM61.4545 220.545H69.0303V228.121H61.4545V220.545ZM84.1818 220.545H91.7576V228.121H84.1818V220.545ZM91.7576 220.545H99.3333V228.121H91.7576V220.545ZM106.909 220.545H114.485V228.121H106.909V220.545ZM114.485 220.545H122.061V228.121H114.485V220.545ZM129.636 220.545H137.212V228.121H129.636V220.545ZM137.212 220.545H144.788V228.121H137.212V220.545ZM190.242 220.545H197.818V228.121H190.242V220.545ZM197.818 220.545H205.394V228.121H197.818V220.545ZM228.121 220.545H235.697V228.121H228.121V220.545ZM235.697 220.545H243.273V228.121H235.697V220.545ZM243.273 220.545H250.848V228.121H243.273V220.545ZM250.848 220.545H258.424V228.121H250.848V220.545ZM16 228.121H23.5758V235.697H16V228.121ZM31.1515 228.121H38.7273V235.697H31.1515V228.121ZM38.7273 228.121H46.303V235.697H38.7273V228.121ZM46.303 228.121H53.8788V235.697H46.303V228.121ZM61.4545 228.121H69.0303V235.697H61.4545V228.121ZM84.1818 228.121H91.7576V235.697H84.1818V228.121ZM114.485 228.121H122.061V235.697H114.485V228.121ZM122.061 228.121H129.636V235.697H122.061V228.121ZM137.212 228.121H144.788V235.697H137.212V228.121ZM144.788 228.121H152.364V235.697H144.788V228.121ZM152.364 228.121H159.939V235.697H152.364V228.121ZM167.515 228.121H175.091V235.697H167.515V228.121ZM182.667 228.121H190.242V235.697H182.667V228.121ZM197.818 228.121H205.394V235.697H197.818V228.121ZM205.394 228.121H212.97V235.697H205.394V228.121ZM212.97 228.121H220.545V235.697H212.97V228.121ZM220.545 228.121H228.121V235.697H220.545V228.121ZM228.121 228.121H235.697V235.697H228.121V228.121ZM235.697 228.121H243.273V235.697H235.697V228.121ZM250.848 228.121H258.424V235.697H250.848V228.121ZM258.424 228.121H266V235.697H258.424V228.121ZM16 235.697H23.5758V243.273H16V235.697ZM31.1515 235.697H38.7273V243.273H31.1515V235.697ZM38.7273 235.697H46.303V243.273H38.7273V235.697ZM46.303 235.697H53.8788V243.273H46.303V235.697ZM61.4545 235.697H69.0303V243.273H61.4545V235.697ZM114.485 235.697H122.061V243.273H114.485V235.697ZM122.061 235.697H129.636V243.273H122.061V235.697ZM152.364 235.697H159.939V243.273H152.364V235.697ZM159.939 235.697H167.515V243.273H159.939V235.697ZM167.515 235.697H175.091V243.273H167.515V235.697ZM190.242 235.697H197.818V243.273H190.242V235.697ZM205.394 235.697H212.97V243.273H205.394V235.697ZM220.545 235.697H228.121V243.273H220.545V235.697ZM228.121 235.697H235.697V243.273H228.121V235.697ZM235.697 235.697H243.273V243.273H235.697V235.697ZM258.424 235.697H266V243.273H258.424V235.697ZM16 243.273H23.5758V250.848H16V243.273ZM31.1515 243.273H38.7273V250.848H31.1515V243.273ZM38.7273 243.273H46.303V250.848H38.7273V243.273ZM46.303 243.273H53.8788V250.848H46.303V243.273ZM61.4545 243.273H69.0303V250.848H61.4545V243.273ZM106.909 243.273H114.485V250.848H106.909V243.273ZM114.485 243.273H122.061V250.848H114.485V243.273ZM122.061 243.273H129.636V250.848H122.061V243.273ZM129.636 243.273H137.212V250.848H129.636V243.273ZM144.788 243.273H152.364V250.848H144.788V243.273ZM152.364 243.273H159.939V250.848H152.364V243.273ZM159.939 243.273H167.515V250.848H159.939V243.273ZM167.515 243.273H175.091V250.848H167.515V243.273ZM175.091 243.273H182.667V250.848H175.091V243.273ZM197.818 243.273H205.394V250.848H197.818V243.273ZM220.545 243.273H228.121V250.848H220.545V243.273ZM228.121 243.273H235.697V250.848H228.121V243.273ZM250.848 243.273H258.424V250.848H250.848V243.273ZM258.424 243.273H266V250.848H258.424V243.273ZM16 250.848H23.5758V258.424H16V250.848ZM61.4545 250.848H69.0303V258.424H61.4545V250.848ZM76.6061 250.848H84.1818V258.424H76.6061V250.848ZM84.1818 250.848H91.7576V258.424H84.1818V250.848ZM91.7576 250.848H99.3333V258.424H91.7576V250.848ZM106.909 250.848H114.485V258.424H106.909V250.848ZM114.485 250.848H122.061V258.424H114.485V250.848ZM129.636 250.848H137.212V258.424H129.636V250.848ZM159.939 250.848H167.515V258.424H159.939V250.848ZM167.515 250.848H175.091V258.424H167.515V250.848ZM182.667 250.848H190.242V258.424H182.667V250.848ZM205.394 250.848H212.97V258.424H205.394V250.848ZM220.545 250.848H228.121V258.424H220.545V250.848ZM228.121 250.848H235.697V258.424H228.121V250.848ZM235.697 250.848H243.273V258.424H235.697V250.848ZM243.273 250.848H250.848V258.424H243.273V250.848ZM16 258.424H23.5758V266H16V258.424ZM23.5758 258.424H31.1515V266H23.5758V258.424ZM31.1515 258.424H38.7273V266H31.1515V258.424ZM38.7273 258.424H46.303V266H38.7273V258.424ZM46.303 258.424H53.8788V266H46.303V258.424ZM53.8788 258.424H61.4545V266H53.8788V258.424ZM61.4545 258.424H69.0303V266H61.4545V258.424ZM84.1818 258.424H91.7576V266H84.1818V258.424ZM122.061 258.424H129.636V266H122.061V258.424ZM129.636 258.424H137.212V266H129.636V258.424ZM137.212 258.424H144.788V266H137.212V258.424ZM159.939 258.424H167.515V266H159.939V258.424ZM182.667 258.424H190.242V266H182.667V258.424ZM190.242 258.424H197.818V266H190.242V258.424ZM197.818 258.424H205.394V266H197.818V258.424ZM205.394 258.424H212.97V266H205.394V258.424ZM220.545 258.424H228.121V266H220.545V258.424ZM250.848 258.424H258.424V266H250.848V258.424Z" fill="black"/>
</svg>
